PathFileType	3	(X/Y/Z)	F:\ViconData\AntennenMessung\Messung1\Session1\ID15.trc
DataRate	CameraRate	NumFrames	NumMarkers	Units	OrigDataRate	OrigDataStartFrame	OrigNumFrames
120.0	120.0	6	70	mm	120.0	168	1342	
Frame#	Time	Ashort			Along			Atop			A4			Bshort			Blong			Btop			B4			Cshort			Clong			Ctop			C4			Dshort			Dlong			Dtop			D4			Eshort			Elong			Etop			E4			Fshort			Flong			Ftop			F4			Gshort			Glong			Gtop			G4			Hshort			Hlong			Htop			H4			I1			I2			I3			I4			I5			WandAshort			WandAlong			WandAtop			WandA4			WandA15			WandBshort			WandB4			WandB5			WandBtop			WandBlong			WandCshort			WandClong			WandCtop			WandC4			WandC5			Acenter			Aantenna			Bcenter			Bantenna			Ccenter			Cantenna			Dcenter			Dantenna			Ecenter			Eantenna			Fcenter			Fantenna			Gcenter			Gantenna			Hcenter			Hantenna			Icenter			Iantenna			
		X1	Y1	Z1	X2	Y2	Z2	X3	Y3	Z3	X4	Y4	Z4	X5	Y5	Z5	X6	Y6	Z6	X7	Y7	Z7	X8	Y8	Z8	X9	Y9	Z9	X10	Y10	Z10	X11	Y11	Z11	X12	Y12	Z12	X13	Y13	Z13	X14	Y14	Z14	X15	Y15	Z15	X16	Y16	Z16	X17	Y17	Z17	X18	Y18	Z18	X19	Y19	Z19	X20	Y20	Z20	X21	Y21	Z21	X22	Y22	Z22	X23	Y23	Z23	X24	Y24	Z24	X25	Y25	Z25	X26	Y26	Z26	X27	Y27	Z27	X28	Y28	Z28	X29	Y29	Z29	X30	Y30	Z30	X31	Y31	Z31	X32	Y32	Z32	X33	Y33	Z33	X34	Y34	Z34	X35	Y35	Z35	X36	Y36	Z36	X37	Y37	Z37	X38	Y38	Z38	X39	Y39	Z39	X40	Y40	Z40	X41	Y41	Z41	X42	Y42	Z42	X43	Y43	Z43	X44	Y44	Z44	X45	Y45	Z45	X46	Y46	Z46	X47	Y47	Z47	X48	Y48	Z48	X49	Y49	Z49	X50	Y50	Z50	X51	Y51	Z51	X52	Y52	Z52	X53	Y53	Z53	X54	Y54	Z54	X55	Y55	Z55	X56	Y56	Z56	X57	Y57	Z57	X58	Y58	Z58	X59	Y59	Z59	X60	Y60	Z60	X61	Y61	Z61	X62	Y62	Z62	X63	Y63	Z63	X64	Y64	Z64	X65	Y65	Z65	X66	Y66	Z66	X67	Y67	Z67	X68	Y68	Z68	X69	Y69	Z69	X70	Y70	Z70	
168	1.3916667	-1038.1937	214.5923	-1644.1079	-1109.3986	204.13034	-1599.3232	-1063.6562	172.924	-1625.8134	-1054.1569	262.21835	-1634.8276	-1352.7512	235.09692	1003.694	-1281.3615	227.3839	1052.3661	-1322.6659	193.85262	1021.0613	-1284.449	287.9332	1052.7876	814.03107	187.72775	1209.4706	892.20477	178.49025	1179.2355	844.49854	145.5596	1198.3073	861.07239	292.15491	1167.6931	1115.8221	209.97391	-1401.7217	1056.2782	194.08926	-1460.1603	1095.1815	162.49208	-1423.7709	1069.7717	238.86725	-1425.7281	-1204.6742	1686.092	-1562.9449	-1129.1289	1688.2844	-1605.9266	-1173.1147	1724.3606	-1581.9562	-1134.0372	1581.0369	-1603.7942	-1239.567	1699.1246	1119.4771	-1308.2882	1699.7408	1069.6947	-1270.4048	1736.3109	1096.8926	-1244.8828	1593.8068	1106.3589	988.91461	1664.2391	1162.2184	957.28418	1700.5706	1183.7539	922.06049	1662.2908	1214.8904	939.8089	1659.4213	1159.903	999.14069	1668.4698	-1579.3666	1058.917	1670.1642	-1518.5709	1025.015	1708.05	-1551.057	1059.3119	1672.1626	-1585.3475	-201.76665	1171.6156	-147.2314	-197.03548	1170.8282	-231.25993	-199.11429	1208.4812	-184.97333	-166.7672	1171.2002	-182.64662	-247.68343	1172.5972	-186.6803																																														-1068.6002	210.12474	-1624.9835	-1073.7368	248.77538	-1624.1217	-1321.3375	231.70296	1025.1112	-1319.9777	270.45801	1029.2579	848.20905	183.68906	1196.2515	851.98096	222.44994	1194.1617	1088.8127	202.76855	-1428.2296	1082.7577	241.06171	-1432.4688	-1171.843	1687.0448	-1581.6243	-1170.5146	1648.0688	-1581.2776	-1270.7384	1699.4042	1096.8961	-1271.0907	1660.4058	1096.9	952.8089	1705.7109	1186.8008	972.74078	1733.8567	1168.5927	1026.5525	1669.2468	-1551.4872	1028.0964	1630.2798	-1551.9193	-199.65952	1171.2649	-184.65524	-200.23077	1132.2705	-184.32199
169	1.4	-1038.2073	214.53255	-1644.0702	-1109.4069	204.13628	-1599.3398	-1063.606	172.94673	-1625.8416	-1054.1624	262.24994	-1634.8231	-1352.7811	235.08282	1003.8052	-1281.4395	227.26917	1052.5149	-1322.7281	193.8149	1021.0641	-1284.4901	287.89368	1052.8281	814.14038	187.49249	1209.449	892.18811	178.46373	1179.1949	844.49091	145.45145	1198.4237	861.10358	292.18695	1167.8118	1115.765	209.68402	-1401.5702	1056.2655	194.07059	-1460.1652	1095.1361	162.43396	-1423.7915	1069.7704	238.90907	-1425.8157	-1204.522	1685.9751	-1563.229	-1129.1332	1688.3007	-1605.9336	-1173.1121	1724.3625	-1581.9664	-1134.0327	1581.0393	-1603.8032	-1239.5844	1699.1522	1119.4852	-1309.333	1698.9283	1071.9781	-1270.3944	1736.3184	1096.8884	-1244.8816	1593.8105	1106.47	988.96265	1664.2803	1162.2273	957.37012	1700.4927	1183.7798	921.95184	1662.3036	1214.8473	939.82532	1659.4438	1159.8928	999.11469	1668.4717	-1579.365	1058.9279	1670.1772	-1518.5725	1025.0175	1708.0591	-1551.0538	1059.3053	1672.168	-1585.3412	-201.78238	1171.6044	-147.21313	-197.04382	1170.8198	-231.26001	-199.11493	1208.4724	-184.97084	-166.75385	1171.1943	-182.6517	-247.64558	1172.5654	-186.67348																																														-1068.5198	210.10643	-1625.0266	-1073.6313	248.7607	-1624.1788	-1321.4202	231.64803	1025.2173	-1320.0808	270.39227	1029.4705	848.07483	183.56685	1196.2947	851.72028	222.33566	1194.1292	1088.8302	202.61601	-1428.0953	1082.8174	240.93056	-1432.1991	-1171.8337	1686.9834	-1581.7454	-1170.5009	1648.0068	-1581.515	-1271.0624	1699.051	1098.0448	-1271.7611	1660.076	1099.2542	952.75037	1705.7877	1186.9314	972.71753	1733.9794	1168.833	1026.5537	1669.2539	-1551.4767	1028.0964	1630.2869	-1551.9012	-199.6714	1171.2549	-184.65479	-200.25446	1132.2606	-184.32367
170	1.4083333	-1038.2148	214.53645	-1644.0658	-1109.4253	204.16359	-1599.312	-1063.6139	172.98235	-1625.8413	-1054.1554	262.26282	-1634.8395	-1352.7019	235.11957	1003.7658	-1281.3958	227.33742	1052.4364	-1322.7002	193.88568	1021.0051	-1284.3976	287.9072	1052.8318	814.03546	187.70694	1209.526	892.69348	179.18484	1178.708	844.52258	145.5143	1198.3367	861.04456	292.37595	1167.2648	1115.7806	209.68687	-1401.5724	1056.286	194.02873	-1460.085	1095.2169	162.53902	-1423.7983	1069.7388	238.87457	-1425.778	-1204.592	1686.0349	-1563.0851	-1129.1221	1688.3348	-1605.989	-1173.1162	1724.3575	-1581.9473	-1134.0372	1581.0421	-1603.8212	-1239.5625	1699.1328	1119.484	-1309.303	1698.8745	1071.9562	-1270.415	1736.3391	1096.9049	-1245.0907	1593.5221	1106.5398	988.92273	1664.2581	1162.2052	957.6073	1700.3473	1183.8032	922.07794	1662.2371	1214.942	939.83759	1659.4141	1159.8943	999.15955	1668.4424	-1579.306	1058.9216	1670.1761	-1518.5533	1025.0135	1708.0616	-1551.0421	1059.2994	1672.2054	-1585.4515	-201.74913	1171.5944	-147.22649	-197.03976	1170.8278	-231.26329	-199.11407	1208.4581	-184.9613	-166.72484	1171.0859	-182.60081	-247.6635	1172.5829	-186.68024																																														-1068.5112	210.12334	-1625.0253	-1073.6084	248.77948	-1624.176	-1321.3926	231.70253	1025.1361	-1320.0529	270.44904	1029.3688	847.88446	184.03961	1196.2639	851.27002	222.83627	1194.1765	1088.8564	202.60085	-1428.0519	1082.7748	240.9084	-1432.1193	-1171.8405	1687.033	-1581.7039	-1170.5082	1648.0565	-1581.4497	-1271.0435	1699.0161	1098.0298	-1271.6998	1660.0393	1099.2046	952.94019	1705.7258	1187.022	972.9361	1733.9025	1168.9324	1026.558	1669.2372	-1551.4532	1028.1082	1630.2701	-1551.8661	-199.65182	1171.2528	-184.65198	-200.21544	1132.2583	-184.32777
171	1.4166667	-1038.2035	214.55231	-1644.0737	-1109.4021	204.12636	-1599.3322	-1063.6359	172.92699	-1625.8456	-1054.1329	262.24921	-1634.8253	-1352.7867	235.1013	1003.7086	-1281.4117	227.31354	1052.504	-1322.7155	193.85829	1021.0405	-1284.4866	287.83762	1052.8835	814.05713	187.68272	1209.4619	892.2251	178.59113	1179.1108	844.49701	145.58206	1198.2578	861.10254	292.15149	1167.7183	1115.7634	209.65779	-1401.5696	1056.2697	194.10439	-1460.1819	1095.1659	162.50714	-1423.7775	1069.7426	238.86372	-1425.7947	-1204.5897	1686.0363	-1563.0889	-1129.1346	1688.3138	-1605.978	-1173.1115	1724.3708	-1581.9574	-1134.0363	1581.0457	-1603.812	-1239.5868	1699.1611	1119.4917	-1308.3341	1699.6279	1069.9052	-1270.3978	1736.3196	1096.8979	-1244.9961	1593.6067	1106.4777	988.95898	1664.2666	1162.2324	957.54248	1700.3334	1183.8246	922.09808	1662.266	1214.8862	939.78784	1659.4059	1159.9108	999.14038	1668.4617	-1579.3582	1058.932	1670.173	-1518.5665	1025.0212	1708.0675	-1551.0431	1059.2983	1672.1948	-1585.449	-201.76515	1171.5886	-147.22406	-197.05667	1170.8256	-231.25644	-199.12871	1208.4709	-184.97447	-166.78423	1171.1815	-182.63527	-247.66985	1172.5804	-186.67677																																														-1068.551	210.10835	-1625.0031	-1073.661	248.76222	-1624.1273	-1321.4065	231.67737	1025.1617	-1320.0654	270.4249	1029.3843	848.14392	183.71812	1196.2267	851.85132	222.48657	1194.1619	1088.8851	202.63101	-1428.0496	1082.887	240.95041	-1432.1296	-1171.8401	1687.0247	-1581.7039	-1170.5133	1648.0482	-1581.4395	-1270.7384	1699.3727	1097.0226	-1271.0979	1660.3745	1097.1539	952.85095	1705.7191	1187.049	972.8158	1733.9292	1168.9768	1026.5681	1669.2466	-1551.4716	1028.1207	1630.2799	-1551.9019	-199.66716	1171.2487	-184.66664	-200.23126	1132.254	-184.34416
172	1.425	-1038.2089	214.56798	-1644.069	-1109.426	204.23247	-1599.3723	-1063.7537	173.12425	-1625.86	-1054.1729	262.24158	-1634.8345	-1352.6765	235.19304	1003.6913	-1281.3796	227.33084	1052.4313	-1322.6577	193.9185	1020.9813	-1284.4934	287.90921	1052.882	814.04401	187.65211	1209.4658	892.31885	178.62154	1179.1401	844.48303	145.46646	1198.3254	861.10474	292.28418	1167.6055	1115.7717	209.7036	-1401.5782	1056.2571	194.11736	-1460.1892	1095.2125	162.51654	-1423.8036	1069.7277	238.86879	-1425.7616	-1204.5978	1686.0374	-1563.0741	-1129.1686	1688.4323	-1606.4893	-1173.1122	1724.3636	-1581.9523	-1134.0291	1581.0293	-1603.8073	-1239.6134	1699.1992	1119.5046	-1309.1952	1698.655	1071.8762	-1270.3971	1736.3126	1096.8905	-1244.9154	1593.7794	1106.3816	988.92969	1664.2693	1162.2142	957.29498	1700.5586	1183.7574	921.92352	1662.3436	1214.9149	939.81592	1659.4365	1159.8988	999.13977	1668.4637	-1579.3671	1058.9218	1670.1731	-1518.5664	1025.0203	1708.0612	-1551.0587	1059.3113	1672.1611	-1585.3453	-201.74129	1171.5911	-147.22638	-197.0508	1170.8226	-231.26437	-199.12436	1208.4722	-184.97659	-166.71785	1171.1003	-182.61119	-247.67101	1172.5712	-186.67137																																														-1068.5896	210.15891	-1625.0016	-1073.6379	248.82037	-1624.1056	-1321.321	231.73535	1025.1263	-1319.9518	270.47925	1029.373	848.10083	183.72296	1196.2712	851.76733	222.49437	1194.1896	1088.8861	202.66254	-1428.0555	1082.8483	240.97801	-1432.1136	-1171.8961	1687.0754	-1581.8965	-1170.6249	1648.0963	-1581.8381	-1270.9172	1698.9542	1098.0773	-1271.46	1659.9777	1099.3156	952.70734	1705.821	1186.8815	972.65106	1733.9884	1168.7197	1026.5588	1669.2477	-1551.4806	1028.1038	1630.2805	-1551.9039	-199.65164	1171.2485	-184.66563	-200.20403	1132.2539	-184.3399
173	1.4333333	-1038.2101	214.56981	-1644.0881	-1109.3889	204.25252	-1599.3506	-1063.6724	172.95645	-1625.8042	-1054.163	262.23938	-1634.8285	-1352.6837	235.12279	1003.7502	-1281.4225	227.26852	1052.4662	-1322.6976	193.85358	1021.0173	-1284.4061	287.93423	1052.7605	814.08685	187.52063	1209.5216	892.172	178.4455	1179.2113	844.47473	145.51329	1198.3051	860.95941	292.17239	1167.3749	1115.762	209.66408	-1401.5663	1056.2617	194.1153	-1460.2228	1095.1775	162.45335	-1423.7467	1069.7739	238.84361	-1425.7614	-1204.6013	1686.0455	-1563.0812	-1129.1686	1688.4209	-1606.453	-1173.152	1724.4341	-1581.9481	-1134.0365	1581.0244	-1603.802	-1239.5706	1699.1395	1119.4843	-1308.2722	1700.1174	1068.9828	-1270.4178	1736.3289	1096.9053	-1244.9418	1593.6561	1106.5293	988.92737	1664.2506	1162.2108	957.51874	1700.3339	1183.7886	922.06921	1662.3201	1214.9199	939.81866	1659.4325	1159.8911	999.12604	1668.4568	-1579.3623	1058.9291	1670.1725	-1518.5731	1025.0151	1708.0573	-1551.0569	1059.3131	1672.1599	-1585.343	-201.77501	1171.6029	-147.21635	-197.04807	1170.8187	-231.25385	-199.11546	1208.4791	-184.97318	-166.77353	1171.2155	-182.63474	-247.64775	1172.5549	-186.67296																																														-1068.5662	210.16971	-1625.0084	-1073.6501	248.82806	-1624.182	-1321.3628	231.67067	1025.1619	-1319.9952	270.41467	1029.408	848.12268	183.56494	1196.3098	851.83942	222.33418	1194.2772	1088.907	202.64626	-1428.0403	1082.9286	240.96725	-1432.134	-1171.9287	1687.0743	-1581.8669	-1170.6526	1648.0952	-1581.7822	-1270.7114	1699.5826	1096.5931	-1271.0232	1660.5854	1096.2618	952.80304	1705.7513	1187.0282	972.75562	1733.9473	1168.9207	1026.5574	1669.2437	-1551.4786	1028.1057	1630.2767	-1551.9021	-199.66905	1171.2534	-184.65689	-200.24895	1132.2593	-184.32559
